<svg width="82" height="55" viewBox="0 0 82 55" fill="none" xmlns="http://www.w3.org/2000/svg">
<g id="apex-white-nav-logo 1" clip-path="url(#clip0_16_2)">
<g id="Layer 2">
<g id="Layer 1">
<path id="Vector" d="M33.2045 2.29397e-05H22.9564L21.7188 5.78062H22.9564V39.8152H28.9935V28.254H33.2045C33.8578 28.256 34.5052 28.129 35.1094 27.8804C35.7136 27.6317 36.2627 27.2663 36.7254 26.805C37.1881 26.3437 37.5552 25.7956 37.8057 25.1922C38.0562 24.5887 38.1852 23.9418 38.1852 23.2884V4.9656C38.1852 4.31224 38.0562 3.6653 37.8057 3.06187C37.5552 2.45843 37.1881 1.91036 36.7254 1.44906C36.2627 0.987766 35.7136 0.622319 35.1094 0.373665C34.5052 0.12501 33.8578 -0.00196296 33.2045 2.29397e-05ZM32.1178 22.4734H29.0992V5.78062H32.1178V22.4734Z" fill="white"/>
<path id="Vector_2" d="M43.5129 5.7806H44.7657V39.8303H58.5153V34.0346H50.8179V22.8054H56.2363V17.0248H50.8179V5.7806H58.5153V0H44.7657L43.5129 5.7806Z" fill="white"/>
<path id="Vector_3" d="M77.5023 18.5191L82 0H75.6005L72.8084 12.5422L69.7747 0H65.0355L63.7828 5.7806H65.0355L68.1295 18.5191V21.2962L63.6318 39.8303H70.0162L72.8084 27.2881L75.842 39.8303H82L77.5023 21.2962V18.5191Z" fill="white"/>
<path id="Vector_4" d="M13.146 0H4.79956L1.78097 28.254H1.22253V28.3898L0 34.0346H1.22253L0.618811 39.8152H6.03718L6.55034 34.0346H11.4103L11.9234 39.8152H17.3267L13.146 0ZM7.03331 28.254L8.96521 5.7806L10.9122 28.254H7.03331Z" fill="white"/>
<path id="Vector_5" d="M14.7458 49.2483V50.5312H0.890447L0.618774 49.2483H14.7458Z" fill="white"/>
<path id="Vector_6" d="M67.873 49.2483V50.5312H81.7284L82 49.2483H67.873Z" fill="white"/>
<path id="Vector_7" d="M25.9448 54.7572H29.2502V53.4743H27.2277V50.5312H28.737V49.2483H27.2277V46.0788H29.2502V44.7959H25.9448V54.7572Z" fill="white"/>
<path id="Vector_8" d="M21.2659 46.0788V44.7959H19.983V54.7572H23.2884V53.4743H21.2659V46.0788Z" fill="white"/>
<path id="Vector_9" d="M35.0609 44.7959H33.1139C32.8896 44.8036 32.6768 44.8971 32.5195 45.0572C32.3622 45.2174 32.2724 45.4318 32.2687 45.6562V53.912C32.2726 54.135 32.3629 54.3477 32.5205 54.5054C32.6782 54.663 32.8909 54.7533 33.1139 54.7572H35.0609C35.2838 54.7533 35.4966 54.663 35.6542 54.5054C35.8119 54.3477 35.9022 54.135 35.9061 53.912V49.2483H34.2308L33.9591 50.5312H34.6232V53.5498H33.5516V46.1542H34.6232V47.4371L35.9061 47.1504V45.7316C35.9165 45.6137 35.9024 45.495 35.8648 45.3827C35.8272 45.2705 35.7669 45.1673 35.6875 45.0794C35.6082 44.9916 35.5116 44.9211 35.4038 44.8723C35.296 44.8235 35.1792 44.7975 35.0609 44.7959Z" fill="white"/>
<path id="Vector_10" d="M38.9247 54.7572H42.23V53.4743H40.2076V50.5312H41.7018V49.2483H40.2076V46.0788H42.23V44.7959H38.9247V54.7572Z" fill="white"/>
<path id="Vector_11" d="M48.0258 50.5312L46.3957 44.7959H45.2487V54.7572H46.5165V49.2483L48.222 54.7572H49.3087V44.7959H48.0258V50.5312Z" fill="white"/>
<path id="Vector_12" d="M55.1195 44.7959H52.3273V54.7572H55.1195C55.3424 54.7533 55.5552 54.663 55.7128 54.5054C55.8705 54.3477 55.9608 54.135 55.9647 53.912V45.6562C55.9647 45.4306 55.8761 45.214 55.7181 45.0531C55.56 44.8922 55.345 44.7998 55.1195 44.7959ZM54.6969 53.4743H53.6102V46.0788H54.6969V53.4743Z" fill="white"/>
<path id="Vector_13" d="M61.7754 49.2483H60.2661V46.0788H61.3528V47.3617L62.6357 47.0749V45.5656C62.6357 45.4534 62.6134 45.3422 62.57 45.2387C62.5266 45.1351 62.4629 45.0413 62.3829 44.9626C62.3028 44.8839 62.2078 44.822 62.1035 44.7804C61.9992 44.7388 61.8877 44.7184 61.7754 44.7204H59.8435C59.7294 44.7162 59.6157 44.7355 59.5094 44.7773C59.4031 44.819 59.3065 44.8822 59.2258 44.963C59.1451 45.0437 59.0818 45.1403 59.0401 45.2466C58.9984 45.3528 58.979 45.4666 58.9832 45.5807V49.6105C58.9872 49.8361 59.0796 50.051 59.2405 50.2091C59.4014 50.3672 59.618 50.4558 59.8435 50.4557H61.3528V53.4743H60.2661V52.1311L58.9832 52.4027V53.912C58.9909 54.1363 59.0845 54.3491 59.2446 54.5064C59.4047 54.6637 59.6191 54.7535 59.8435 54.7572H61.7754C62.001 54.7573 62.2176 54.6687 62.3785 54.5106C62.5394 54.3525 62.6318 54.1376 62.6357 53.912V50.1086C62.6318 49.8817 62.54 49.6651 62.3795 49.5046C62.219 49.3441 62.0024 49.2522 61.7754 49.2483Z" fill="white"/>
<path id="Vector_14" d="M64.4317 44.9619H64.1299V44.7959H64.8996V44.9619H64.5978V46.0788H64.4317V44.9619Z" fill="white"/>
<path id="Vector_15" d="M65.6695 46.0788V45.3845L65.5336 45.8071H65.3978L65.2771 45.3845V46.0788H65.0959V44.7959H65.262L65.4582 45.4449L65.6695 44.7959H65.8355V46.0788H65.6695Z" fill="white"/>
</g>
</g>
</g>
<defs>
<clipPath id="clip0_16_2">
<rect width="82" height="54.7572" fill="white"/>
</clipPath>
</defs>
</svg>
